<svg width="3769" height="794" viewBox="0 0 3769 794" fill="none" xmlns="http://www.w3.org/2000/svg">
<path d="M610.34 295.09C612.965 287.215 615.59 276.715 618.215 268.84C639.215 200.59 633.965 145.465 599.84 111.34C539.465 50.965 408.215 82.465 269.09 190.09L250.715 171.715C245.465 205.84 229.715 239.965 200.84 268.84C174.59 295.09 143.09 313.465 111.59 318.715C108.965 318.715 106.34 318.715 103.715 318.715L122.09 337.09C14.465 473.59 -17.035 604.84 43.34 667.84C64.34 688.84 93.215 699.34 127.34 699.34C213.965 699.34 337.34 633.715 452.84 520.84C526.34 447.34 581.465 365.965 610.34 295.09ZM337.34 552.34C303.215 578.59 271.715 596.965 242.84 612.715L287.465 499.84L337.34 552.34ZM434.465 350.215L547.34 305.59C531.59 337.09 510.59 371.215 484.34 402.715L434.465 350.215ZM565.715 148.09C581.465 163.84 584.09 197.965 573.59 237.34L392.465 310.84L387.215 305.59L450.215 145.465C505.34 127.09 544.715 129.715 565.715 148.09ZM381.965 176.965L347.84 263.59L311.09 226.84C334.715 208.465 358.34 192.715 381.965 176.965ZM198.215 410.59L114.215 444.715C127.34 423.715 143.09 400.09 161.465 376.465L198.215 410.59ZM82.715 631.09C64.34 612.715 61.715 570.715 82.715 515.59L237.59 452.59L245.465 460.465L174.59 638.965C132.59 649.465 98.465 646.84 82.715 631.09Z" fill="#54CFE8" stroke="#54CFE8" stroke-width="25"/>
<path d="M85.3401 271.465C90.5901 271.465 95.8401 271.465 103.715 268.84C127.34 263.59 148.34 250.465 166.715 232.09C208.715 190.09 216.59 134.965 185.09 103.465C169.34 87.715 145.715 79.84 119.465 85.09C98.465 90.34 74.84 103.465 56.465 121.84C14.465 163.84 6.59005 218.965 38.09 250.465C51.215 263.59 66.9651 271.465 85.3401 271.465Z" fill="#54CFE8" stroke="#54CFE8" stroke-width="25"/>
<path d="M694.34 612.715L576.215 494.59C555.215 520.84 531.59 547.09 505.34 573.34C479.09 599.59 452.84 623.215 426.59 644.215L544.715 762.34C557.84 775.465 573.59 780.715 594.59 780.715C599.84 780.715 605.09 780.715 612.965 778.09C636.59 772.84 657.59 759.715 675.965 741.34C717.965 699.34 725.84 644.215 694.34 612.715Z" fill="#54CFE8" stroke="#54CFE8" stroke-width="25"/>
<path d="M1019.19 627.958C982.505 627.958 947.101 623.479 912.976 614.521C879.278 605.137 851.765 593.193 830.437 578.69L872.026 485.273C892.075 498.07 915.109 508.734 941.129 517.265C967.576 525.37 993.809 529.422 1019.83 529.422C1037.32 529.422 1051.39 527.929 1062.06 524.944C1072.72 521.531 1080.4 517.265 1085.09 512.147C1090.21 506.601 1092.77 500.203 1092.77 492.952C1092.77 482.714 1088.08 474.609 1078.69 468.638C1069.31 462.666 1057.15 457.76 1042.22 453.921C1027.29 450.082 1010.66 446.243 992.316 442.404C974.401 438.565 956.272 433.66 937.93 427.688C920.014 421.716 903.592 414.038 888.662 404.654C873.732 394.843 861.576 382.259 852.191 366.903C842.807 351.12 838.115 331.285 838.115 307.398C838.115 280.525 845.366 256.211 859.869 234.456C874.799 212.702 896.98 195.213 926.413 181.989C955.845 168.766 992.529 162.154 1036.47 162.154C1065.9 162.154 1094.69 165.567 1122.84 172.392C1151.42 178.79 1176.8 188.388 1198.98 201.184L1159.95 295.241C1138.63 283.724 1117.51 275.193 1096.61 269.647C1075.71 263.676 1055.45 260.69 1035.83 260.69C1018.34 260.69 1004.26 262.609 993.596 266.448C982.932 269.861 975.254 274.553 970.562 280.525C965.869 286.496 963.523 293.321 963.523 301C963.523 310.81 968.002 318.702 976.96 324.674C986.344 330.219 998.501 334.911 1013.43 338.75C1028.79 342.163 1045.42 345.788 1063.34 349.627C1081.68 353.466 1099.81 358.372 1117.72 364.344C1136.07 369.889 1152.7 377.567 1167.63 387.378C1182.56 396.762 1194.51 409.346 1203.46 425.128C1212.85 440.485 1217.54 459.893 1217.54 483.354C1217.54 509.374 1210.08 533.475 1195.15 555.656C1180.64 577.41 1158.67 594.899 1129.24 608.123C1100.24 621.346 1063.55 627.958 1019.19 627.958ZM1365.15 619V271.567H1227.58V171.112H1628.76V271.567H1491.84V619H1365.15ZM1599.72 619L1797.43 171.112H1922.2L2120.55 619H1988.74L1833.9 233.176H1883.81L1728.97 619H1599.72ZM1707.85 531.982L1740.48 438.565H1959.31L1991.94 531.982H1707.85ZM2229.31 619V271.567H2091.74V171.112H2492.92V271.567H2356V619H2229.31ZM2540.12 619V171.112H2666.81V619H2540.12ZM2982.8 627.958C2946.97 627.958 2913.91 622.199 2883.63 610.682C2853.34 599.165 2826.9 582.956 2804.29 562.054C2782.11 540.726 2764.83 515.986 2752.46 487.833C2740.09 459.68 2733.91 428.754 2733.91 395.056C2733.91 361.358 2740.09 330.432 2752.46 302.279C2764.83 274.126 2782.11 249.599 2804.29 228.698C2826.9 207.37 2853.34 190.947 2883.63 179.43C2913.91 167.913 2946.97 162.154 2982.8 162.154C3019.06 162.154 3052.12 167.913 3081.98 179.43C3112.26 190.947 3138.5 207.37 3160.68 228.698C3182.86 249.599 3200.14 274.126 3212.51 302.279C3225.3 330.432 3231.7 361.358 3231.7 395.056C3231.7 428.754 3225.3 459.893 3212.51 488.473C3200.14 516.626 3182.86 541.153 3160.68 562.054C3138.5 582.956 3112.26 599.165 3081.98 610.682C3052.12 622.199 3019.06 627.958 2982.8 627.958ZM2982.8 523.024C2999.87 523.024 3015.65 520.038 3030.15 514.066C3045.08 508.094 3057.88 499.563 3068.54 488.473C3079.63 476.956 3088.16 463.306 3094.14 447.523C3100.53 431.74 3103.73 414.251 3103.73 395.056C3103.73 375.434 3100.53 357.945 3094.14 342.589C3088.16 326.806 3079.63 313.37 3068.54 302.279C3057.88 290.762 3045.08 282.018 3030.15 276.046C3015.65 270.074 2999.87 267.088 2982.8 267.088C2965.74 267.088 2949.75 270.074 2934.82 276.046C2920.31 282.018 2907.52 290.762 2896.43 302.279C2885.76 313.37 2877.23 326.806 2870.83 342.589C2864.86 357.945 2861.87 375.434 2861.87 395.056C2861.87 414.251 2864.86 431.74 2870.83 447.523C2877.23 463.306 2885.76 476.956 2896.43 488.473C2907.52 499.563 2920.31 508.094 2934.82 514.066C2949.75 520.038 2965.74 523.024 2982.8 523.024ZM3298.05 619V171.112H3402.35L3649.33 469.277H3600.06V171.112H3724.19V619H3619.89L3372.92 320.835H3422.18V619H3298.05Z" fill="white"/>
</svg>
